<?xml version="1.0" standalone="no"?>
<!DOCTYPE svg PUBLIC "-//W3C//DTD SVG 20010904//EN"
 "http://www.w3.org/TR/2001/REC-SVG-20010904/DTD/svg10.dtd">
<svg version="1.0" xmlns="http://www.w3.org/2000/svg"
 width="591.000000pt" height="378.000000pt" viewBox="0 0 591.000000 378.000000"
 preserveAspectRatio="xMidYMid meet">

<g transform="translate(0.000000,378.000000) scale(0.100000,-0.100000)"
fill="#000000" stroke="none">
<path d="M2913 3633 c-36 -114 -46 -219 -40 -422 6 -199 29 -364 72 -506 34
-116 110 -308 122 -312 18 -6 20 20 7 82 -27 126 -85 431 -99 527 -23 150 -35
407 -26 548 8 121 7 150 -8 150 -4 0 -17 -30 -28 -67z"/>
<path d="M2281 3506 c-28 -34 30 -111 107 -143 41 -17 62 -11 62 17 0 80 -128
175 -169 126z"/>
<path d="M3242 3372 c-44 -98 -62 -196 -69 -362 -6 -168 13 -320 54 -432 23
-63 47 -97 59 -86 2 3 -3 70 -12 149 -20 177 -15 600 9 714 8 39 13 73 10 78
-10 17 -22 3 -51 -61z"/>
<path d="M3695 3373 c-65 -34 -128 -114 -107 -135 25 -25 167 53 178 98 6 25
-10 54 -30 54 -6 -1 -24 -8 -41 -17z"/>
<path d="M2480 3308 c0 -7 6 -24 14 -38 169 -314 302 -547 318 -556 5 -4 15
-1 20 4 29 29 -70 277 -163 409 -95 133 -189 224 -189 181z"/>
<path d="M3488 3177 c-43 -26 -65 -53 -104 -127 -27 -51 -29 -63 -29 -162 0
-89 3 -110 17 -125 26 -25 37 -7 49 73 14 99 53 210 100 281 54 83 41 106 -33
60z"/>
<path d="M2139 2934 c-21 -26 1 -49 47 -49 28 0 40 5 42 16 7 40 -62 66 -89
33z"/>
<path d="M2275 2890 c-10 -16 1 -26 63 -60 133 -76 266 -174 421 -314 111
-100 135 -85 55 35 -104 154 -290 293 -449 335 -60 16 -82 17 -90 4z"/>
<path d="M2952 1669 c-42 -16 -66 -90 -67 -209 0 -58 3 -124 8 -147 7 -43 7
-43 -23 -43 -23 0 -30 -4 -30 -20 0 -16 7 -20 30 -20 22 0 33 -6 39 -23 15
-39 41 -209 41 -268 0 -59 14 -85 39 -69 11 6 13 28 7 103 -6 88 -20 188 -33
230 -5 18 2 19 99 15 83 -2 103 0 103 11 0 22 -23 29 -120 38 l-90 8 -13 50
c-14 52 -12 244 3 278 12 30 38 15 78 -46 38 -56 62 -71 73 -44 12 33 -53 140
-94 155 -16 5 -37 6 -50 1z"/>
<path d="M3343 1658 c-38 -41 -56 -130 -50 -238 3 -52 9 -104 12 -116 5 -17 1
-22 -27 -30 -23 -7 -33 -16 -33 -29 0 -16 8 -21 41 -23 l40 -3 13 -57 c6 -31
14 -102 17 -157 6 -124 11 -145 29 -145 28 0 34 33 24 149 -6 62 -14 132 -18
157 -5 25 -5 47 0 50 5 3 45 0 90 -7 70 -10 83 -9 96 4 8 8 13 20 9 25 -3 5
-51 15 -106 22 -56 7 -104 18 -110 25 -16 20 -28 159 -20 243 12 121 45 131
96 30 24 -47 49 -62 60 -34 3 8 -8 42 -26 74 -43 82 -96 104 -137 60z"/>
<path d="M5066 1591 c-12 -19 -46 -206 -46 -252 l0 -49 -40 -6 c-75 -12 -79
-54 -4 -54 l44 0 0 -72 c1 -86 23 -223 40 -244 7 -8 19 -14 28 -14 12 0 14 10
8 63 -4 34 -9 110 -13 170 l-6 107 71 0 c49 0 71 4 75 13 10 26 -10 37 -76 44
l-67 6 0 53 c0 29 7 88 15 131 20 102 19 113 -4 113 -11 0 -22 -4 -25 -9z"/>
<path d="M377 1570 c-11 -14 -29 -20 -55 -20 -22 0 -73 -3 -115 -6 -71 -6 -77
-9 -77 -29 0 -22 1 -22 114 -17 l114 5 -1 -174 c-1 -169 17 -376 35 -411 5
-10 16 -18 25 -18 14 0 15 13 7 118 -10 131 -12 477 -3 486 3 3 66 9 140 14
125 6 134 8 134 27 0 19 -7 20 -128 21 -84 0 -131 4 -139 12 -17 17 -31 15
-51 -8z"/>
<path d="M864 1562 c-15 -10 -24 -244 -17 -452 5 -142 9 -170 22 -175 23 -9
53 31 91 121 51 123 105 193 129 169 13 -13 31 -132 31 -207 0 -69 7 -88 31
-88 17 0 19 8 19 83 0 217 -46 310 -129 261 -30 -17 -90 -97 -121 -156 -7 -16
-15 -26 -17 -24 -2 2 -6 106 -8 232 -3 125 -8 231 -12 235 -5 5 -13 5 -19 1z"/>
<path d="M5423 1315 c-47 -21 -53 -28 -53 -54 0 -19 7 -34 18 -40 10 -5 75
-14 145 -20 123 -9 176 -23 184 -48 10 -31 -110 -103 -279 -167 -96 -37 -118
-55 -94 -75 18 -15 175 37 287 95 133 69 189 143 141 187 -23 21 -172 57 -242
58 -91 1 -102 12 -31 32 49 14 61 21 61 37 0 17 -7 20 -42 20 -24 0 -66 -11
-95 -25z"/>
<path d="M1236 1298 c-20 -28 -21 -67 -2 -82 17 -14 29 -73 16 -81 -18 -11
-11 -47 9 -52 25 -6 36 -55 19 -82 -10 -17 -9 -26 9 -58 28 -49 51 -54 59 -15
7 37 28 41 204 43 193 2 264 11 268 32 3 16 -13 17 -237 17 l-241 0 0 35 0 35
114 0 c156 0 206 8 206 31 0 18 -11 19 -170 19 l-169 0 -11 41 c-6 23 -8 45
-3 49 18 18 122 30 251 30 140 0 169 6 159 33 -12 31 -175 34 -356 6 -53 -8
-66 -7 -81 6 -22 20 -26 19 -44 -7z"/>
<path d="M2156 1313 c-4 -5 -14 -24 -22 -43 -13 -31 -13 -36 1 -46 25 -18 38
-75 23 -102 -11 -21 -9 -26 9 -40 28 -22 37 -56 22 -80 -10 -16 -9 -27 6 -58
10 -22 23 -42 29 -46 15 -10 36 11 36 37 0 20 6 23 68 28 37 4 115 7 173 7 58
0 134 3 168 6 52 6 61 10 61 26 0 19 -7 20 -237 17 l-237 -4 -7 31 c-6 31 -6
32 45 38 28 3 96 6 151 6 105 0 132 8 122 34 -6 14 -29 16 -171 16 l-166 0 -6
28 c-3 15 -8 35 -10 44 -8 28 57 40 233 45 128 4 165 8 175 20 36 44 -86 55
-301 27 -110 -14 -122 -14 -137 0 -18 18 -18 18 -28 9z"/>
<path d="M3652 1297 c-6 -6 -14 -25 -18 -41 -5 -22 -2 -32 13 -45 23 -18 38
-67 23 -76 -17 -10 -11 -44 9 -54 26 -14 35 -57 17 -82 -12 -18 -11 -25 12
-60 29 -45 55 -48 60 -8 3 24 8 27 55 33 29 3 102 6 162 7 183 2 249 11 253
33 4 18 -6 18 -234 15 l-238 -4 -7 29 c-5 17 -7 32 -4 34 2 2 75 7 162 11 149
6 158 7 158 26 0 19 -7 20 -169 20 l-170 0 -7 25 c-17 60 -12 68 44 80 28 7
117 14 197 16 80 2 148 4 153 4 4 0 7 9 7 19 0 16 -10 21 -47 27 -57 8 -265
-2 -330 -16 -40 -9 -49 -9 -59 4 -14 19 -28 20 -42 3z"/>
<path d="M4579 1277 c-56 -16 -89 -39 -157 -111 -78 -82 -103 -162 -67 -213
34 -49 157 -66 269 -37 89 23 206 74 206 89 0 26 -19 26 -79 0 -83 -35 -174
-55 -249 -55 -54 0 -67 4 -87 25 -14 13 -25 31 -25 40 0 57 79 148 166 191 44
22 63 25 100 20 35 -4 46 -2 51 10 15 39 -54 61 -128 41z"/>
<path d="M713 408 c-19 -23 -25 -59 -18 -105 5 -33 12 -47 31 -55 29 -13 74 3
74 27 0 20 -16 19 -24 -1 -3 -9 -15 -14 -28 -12 -21 3 -23 8 -23 68 0 56 3 65
19 68 11 2 26 -4 33 -14 16 -22 31 -9 17 14 -14 21 -67 28 -81 10z"/>
<path d="M970 336 c0 -88 17 -128 22 -54 3 40 5 43 33 43 28 0 30 -3 33 -42 6
-79 22 -44 22 47 0 53 -4 90 -10 90 -5 0 -10 -18 -10 -40 0 -39 -1 -40 -35
-40 -34 0 -35 1 -35 40 0 22 -4 40 -10 40 -6 0 -10 -35 -10 -84z"/>
<path d="M1169 335 c-15 -49 -22 -88 -17 -91 5 -3 12 3 15 15 8 30 66 30 80
-1 5 -12 12 -18 15 -12 8 14 -43 174 -56 174 -6 0 -23 -38 -37 -85z m55 -12
c6 -20 4 -23 -19 -23 -23 0 -25 3 -19 28 13 51 21 50 38 -5z"/>
<path d="M1348 409 c-15 -8 -18 -24 -18 -80 0 -64 2 -70 25 -81 30 -13 75 3
75 27 0 20 -10 19 -25 -1 -8 -11 -19 -14 -34 -9 -20 6 -22 12 -19 68 2 51 6
62 21 65 10 2 27 -4 38 -14 15 -14 19 -14 19 -3 0 35 -45 50 -82 28z"/>
<path d="M1744 406 c-10 -8 -15 -18 -11 -22 4 -5 12 -2 16 5 13 20 46 9 49
-17 3 -17 -2 -25 -17 -29 -26 -7 -28 -23 -2 -23 21 0 33 -22 25 -45 -8 -20
-50 -19 -58 1 -3 8 -11 12 -17 9 -7 -5 -4 -13 7 -26 36 -40 102 -10 89 40 -6
27 -6 33 -4 77 2 42 -39 58 -77 30z"/>
<path d="M1911 345 c-13 -41 -20 -83 -18 -92 4 -15 6 -15 12 5 10 32 70 32 78
0 4 -12 9 -19 13 -15 7 7 -21 128 -38 160 -15 30 -25 19 -47 -58z m52 -37 c-2
-5 -13 -8 -24 -8 -16 0 -18 5 -13 28 11 44 17 48 30 17 7 -17 10 -33 7 -37z"/>
<path d="M2070 330 l0 -90 39 0 c65 0 93 48 51 90 -11 11 -31 20 -45 20 -20 0
-25 5 -25 25 0 22 4 25 35 25 19 0 35 5 35 10 0 6 -20 10 -45 10 l-45 0 0 -90z
m75 -35 c0 -25 -4 -30 -27 -33 -26 -3 -28 -1 -28 33 0 34 2 36 28 33 23 -3 27
-8 27 -33z"/>
<path d="M2257 402 c-25 -28 -23 -116 3 -142 23 -23 49 -26 74 -7 24 17 32
102 14 137 -17 32 -67 39 -91 12z m77 -45 c17 -69 -27 -128 -61 -81 -16 23
-17 96 -1 112 24 24 52 10 62 -31z"/>
<path d="M2420 410 c0 -5 9 -10 20 -10 18 0 20 -7 20 -80 0 -47 4 -80 10 -80
6 0 10 33 10 80 0 73 2 80 20 80 11 0 20 5 20 10 0 6 -22 10 -50 10 -27 0 -50
-4 -50 -10z"/>
<path d="M2588 335 c-14 -47 -22 -88 -17 -90 4 -3 10 3 14 14 11 35 69 34 79
-2 3 -11 8 -18 12 -15 13 14 -37 178 -54 178 -5 0 -20 -38 -34 -85z m52 -4 c8
-29 7 -31 -16 -31 -27 0 -29 6 -14 46 12 31 17 29 30 -15z"/>
<path d="M2961 406 c-18 -22 -10 -146 10 -159 21 -13 65 -2 73 19 9 24 -3 33
-15 11 -15 -25 -48 -21 -59 8 -14 37 1 109 25 114 10 2 25 -5 32 -15 17 -23
28 -12 13 15 -13 25 -61 29 -79 7z"/>
<path d="M3220 330 l0 -90 35 0 c42 0 81 33 69 58 -4 9 -6 33 -5 54 2 45 -19
68 -65 68 l-34 0 0 -90z m76 55 c8 -20 -13 -45 -37 -45 -14 0 -19 7 -19 30 0
25 4 30 25 30 14 0 28 -7 31 -15z m-8 -64 c8 -4 12 -19 10 -32 -2 -18 -10 -25
-30 -27 -25 -3 -28 0 -28 26 0 41 17 53 48 33z"/>
<path d="M3410 343 c-12 -43 -25 -84 -27 -90 -9 -24 14 -13 25 12 16 36 59 34
74 -2 7 -18 12 -23 15 -13 5 21 -40 163 -53 167 -6 2 -21 -31 -34 -74z m54
-20 c6 -20 4 -23 -18 -23 -29 0 -31 6 -15 47 11 30 19 24 33 -24z"/>
<path d="M3576 398 c-32 -46 -15 -143 28 -154 29 -7 66 11 66 31 0 20 -16 19
-24 -1 -3 -9 -15 -14 -28 -12 -21 3 -23 8 -23 68 0 56 3 65 19 68 11 2 26 -4
33 -14 16 -22 31 -9 17 14 -17 27 -69 27 -88 0z"/>
<path d="M3980 330 l0 -90 31 0 c45 0 69 16 69 48 0 16 -5 33 -11 39 -8 8 -8
13 0 17 16 10 13 42 -5 60 -8 9 -31 16 -50 16 l-34 0 0 -90z m68 43 c-2 -20
-9 -29 -25 -31 -20 -3 -23 1 -23 27 0 27 4 31 26 31 22 0 25 -4 22 -27z m7
-84 c0 -19 -6 -25 -27 -27 -25 -3 -28 0 -28 26 0 36 7 43 33 33 14 -5 22 -17
22 -32z"/>
<path d="M4154 407 c-3 -8 -4 -47 -2 -88 l3 -74 43 -3 c49 -4 58 15 10 20 -28
2 -34 8 -36 31 -3 24 1 28 30 34 l33 7 -30 6 c-24 4 -30 10 -30 30 0 21 5 26
33 28 46 5 40 22 -8 22 -25 0 -43 -5 -46 -13z"/>
<path d="M4338 409 c-15 -8 -18 -24 -18 -80 0 -64 2 -70 25 -81 30 -13 75 3
75 27 0 20 -16 19 -24 -1 -3 -9 -15 -14 -28 -12 -21 3 -23 8 -23 68 0 55 3 65
18 68 10 2 27 -4 38 -14 15 -14 19 -14 19 -3 0 35 -45 50 -82 28z"/>
<path d="M4498 410 c-1 -5 -2 -46 0 -90 l4 -80 44 0 c24 0 44 5 44 10 0 6 -16
10 -36 10 -34 0 -35 1 -32 32 2 25 9 34 28 39 l25 7 -27 1 c-24 1 -28 5 -28
31 0 27 3 30 29 30 17 0 33 5 36 10 4 6 -11 10 -39 10 -24 0 -46 -4 -48 -10z"/>
<path d="M4679 418 c-1 -2 -3 -34 -5 -73 -3 -48 -9 -74 -20 -82 -10 -7 -12
-13 -4 -18 23 -14 39 17 42 83 3 64 4 67 28 67 24 0 25 -3 27 -60 1 -33 2 -69
2 -79 1 -14 4 -17 11 -10 6 6 10 44 8 90 l-3 79 -42 3 c-24 2 -43 2 -44 0z"/>
<path d="M4847 413 c-2 -5 -3 -44 -2 -88 3 -74 4 -80 25 -83 39 -6 69 7 76 32
9 37 -12 66 -46 66 -30 0 -34 6 -31 47 2 21 -14 40 -22 26z m69 -97 c15 -12
17 -18 8 -33 -6 -10 -21 -19 -33 -21 -18 -3 -21 1 -21 32 0 39 13 46 46 22z"/>
<path d="M5020 330 l0 -90 45 0 c25 0 45 5 45 10 0 6 -16 10 -35 10 -33 0 -35
2 -35 34 0 32 3 35 33 39 l32 4 -32 1 c-30 2 -33 5 -33 32 0 27 3 30 30 30 17
0 30 5 30 10 0 6 -18 10 -40 10 l-40 0 0 -90z"/>
<path d="M5187 413 c-10 -9 -9 -111 2 -117 10 -7 23 106 12 117 -4 4 -10 4
-14 0z"/>
<path d="M1525 310 c3 -5 17 -10 31 -10 13 0 24 5 24 10 0 6 -14 10 -31 10
-17 0 -28 -4 -24 -10z"/>
<path d="M3760 310 c0 -5 14 -10 30 -10 17 0 30 5 30 10 0 6 -13 10 -30 10
-16 0 -30 -4 -30 -10z"/>
<path d="M2760 270 c-1 -3 -4 -18 -6 -34 -2 -20 0 -26 7 -19 6 6 9 21 6 34 -2
13 -5 22 -7 19z"/>
<path d="M5185 261 c-3 -5 -1 -12 5 -16 5 -3 10 1 10 9 0 18 -6 21 -15 7z"/>
</g>
</svg>
